<svg width="148" height="148" viewBox="0 0 148 148" fill="none" xmlns="http://www.w3.org/2000/svg">
  <g stroke="#3f4c5a" stroke-width="6" stroke-linecap="round" stroke-linejoin="round">
    <path d="M26 96c-8-16-4-40 22-50l18-6 6 12 16-8 6 12 16-6 8 10 16 2c6 8 8 16 8 28 0 22-20 36-50 36H60c-14 0-24-8-30-20Z" />
    <path d="M52 34 60 18" />
    <path d="M70 30 76 14" />
    <path d="M90 32 96 16" />
    <path d="M110 40 118 24" />
    <path d="M52 94c4 8 10 14 20 18" />
    <path d="M78 86c8 4 18 4 30-2" />
  </g>
  <circle cx="88" cy="74" r="5" fill="#3f4c5a" />
  <g fill="#3f4c5a" font-family="'Noto Sans KR', 'Segoe UI', sans-serif" font-weight="700" font-size="28">
    <text x="134" y="52" text-anchor="middle">A</text>
    <text x="134" y="84" text-anchor="middle">T</text>
    <text x="134" y="116" text-anchor="middle">G</text>
  </g>
</svg>
